<?xml version="1.0" encoding="UTF-8" standalone="no"?>
<svg
   width="2024"
   height="1024"
   viewBox="0 0 2024 1024"
   fill="none"
   version="1.1"
   id="svg17"
   xml:space="preserve"
   xmlns:xlink="http://www.w3.org/1999/xlink"
   xmlns="http://www.w3.org/2000/svg"
   xmlns:svg="http://www.w3.org/2000/svg"><mask
     id="path-4-inside-1_1_4"
     fill="#ffffff"><path
       d="m 266.2,696 1.8,29.8 -2,-1.8 c 1.6,-9.467 4.733,-16.467 9.4,-21 4.8,-4.667 11.267,-7 19.4,-7 h 20.6 v 12 h -20.6 c -5.467,0 -10.133,1.267 -14,3.8 -3.733,2.4 -6.6,5.933 -8.6,10.6 -1.867,4.533 -2.8,10 -2.8,16.4 V 802 H 256 V 696 Z m -2.8,0 v 12.2 H 228 V 696 Z m 41.4,93.8 V 802 H 228 v -12.2 z m 39.522,-62.6 c 1.867,-10 6.6,-18.067 14.2,-24.2 7.733,-6.267 17.067,-9.4 28,-9.4 13.067,0 23.267,3.8 30.6,11.4 7.333,7.467 11,18.467 11,33 v 43.6 c 0,2.8 0.6,4.867 1.8,6.2 1.2,1.333 3,2 5.4,2 h 4.2 V 802 h -4.8 c -5.867,0 -10.533,-1.533 -14,-4.6 -3.467,-3.2 -5.467,-7.8 -6,-13.8 -2.533,6.133 -6.933,11.133 -13.2,15 -6.267,3.733 -13.6,5.667 -22,5.8 -7.067,0 -13.4,-1.2 -19,-3.6 -5.6,-2.533 -10,-6 -13.2,-10.4 -3.2,-4.533 -4.8,-9.733 -4.8,-15.6 0,-6.667 1.6,-12 4.8,-16 3.333,-4.133 7.733,-7.333 13.2,-9.6 5.467,-2.267 12.4,-4.2 20.8,-5.8 l 33.2,-6.2 c -0.133,-10.267 -2.667,-17.933 -7.6,-23 -4.8,-5.067 -11.6,-7.6 -20.4,-7.6 -7.333,0 -13.467,2 -18.4,6 -4.8,3.867 -7.867,9.133 -9.2,15.8 z m 12.4,47.6 c 0,5.333 2.133,9.667 6.4,13 4.4,3.2 10.6,4.667 18.6,4.4 6.267,0 11.933,-1.467 17,-4.4 5.067,-2.933 9.067,-7.067 12,-12.4 2.933,-5.333 4.333,-11.467 4.2,-18.4 v -7.8 l -27.2,4.8 -4.2,0.8 c -6,1.067 -10.867,2.2 -14.6,3.4 -3.6,1.2 -6.533,3.133 -8.8,5.8 -2.267,2.667 -3.4,6.267 -3.4,10.8 z M 538.044,660 h 13.4 v 142 h -11.8 l -0.6,-18.6 c -3.2,6.533 -7.8,11.667 -13.8,15.4 -6,3.733 -13,5.6 -21,5.6 -9.6,0 -17.8,-2.4 -24.6,-7.2 -6.667,-4.933 -11.667,-11.6 -15,-20 -3.334,-8.4 -5,-17.8 -5,-28.2 0,-10.4 1.666,-19.733 5,-28 3.333,-8.4 8.333,-15 15,-19.8 6.8,-4.933 15,-7.4 24.6,-7.4 7.733,0 14.533,1.8 20.4,5.4 6,3.467 10.466,8.267 13.4,14.4 z m -2.6,110.2 c 2.533,-6.533 3.8,-13.6 3.8,-21.2 0,-7.733 -1.267,-14.867 -3.8,-21.4 -2.534,-6.533 -6.267,-11.733 -11.2,-15.6 -4.8,-3.867 -10.667,-5.8 -17.6,-5.8 -10.8,0 -19,4 -24.6,12 -5.6,8 -8.4,18.267 -8.4,30.8 0,12.4 2.8,22.6 8.4,30.6 5.6,8 13.8,12 24.6,12 6.933,0 12.8,-1.933 17.6,-5.8 4.933,-4 8.666,-9.2 11.2,-15.6 z M 642.566,696 v 106 h -13.6 V 696 Z m 0,0 v 12.2 h -52 V 696 Z m 36.6,93.8 V 802 h -92.6 V 789.8 Z M 642.566,660 v 18.2 h -15 V 660 Z m 151.922,36 -37.2,52.2 38.8,53.8 h -16.4 l -31,-43.8 -31,43.8 h -16.6 l 38.999,-54 -37.199,-52 h 16.6 l 29.2,42 29.2,-42 z"
       id="path4" /></mask><defs
     id="defs17"><linearGradient
       id="linearGradient6"><stop
         style="stop-color:#194582;stop-opacity:1;"
         offset="0.13523766"
         id="stop5" /><stop
         style="stop-color:#00f3ff;stop-opacity:1;"
         offset="0.87760204"
         id="stop6" /></linearGradient><linearGradient
       xlink:href="#linearGradient6"
       id="linearGradient5"
       x1="87.722328"
       y1="110.36568"
       x2="120.99411"
       y2="18.952223"
       gradientUnits="userSpaceOnUse"
       gradientTransform="matrix(18.418614,0,0,18.418614,-910.13372,-678.92868)" /></defs><path
     id="path1-2-3-18"
     style="font-weight:bold;font-size:19.7556px;font-family:TimeBurner;-inkscape-font-specification:'TimeBurner Bold';baseline-shift:baseline;display:inline;overflow:visible;vector-effect:none;fill:url(#linearGradient5);stroke-width:29.1422;enable-background:accumulate;stop-color:#000000"
     d="m 651.18595,168.53124 c -24.84924,1.02572 -46.45824,10.69777 -61.41329,19.5926 -17.46625,10.38886 -29.42229,26.93142 -37.7692,40.70633 -8.34741,13.77465 -13.02672,25.54108 -13.02672,25.54108 l -8.41856,21.33936 22.84585,-2.25851 c 0,0 29.04267,-2.8297 62.13599,-0.9646 4.56672,0.26218 9.1856,0.64707 13.79423,1.15983 -35.85548,14.59239 -58.17306,38.55162 -69.53017,64.48525 -14.65779,33.47037 -12.55303,68.29033 -7.95121,92.54155 4.7022,24.78369 18.90581,45.73865 31.42911,61.32269 12.52377,15.5844 24.27613,26.03832 24.27613,26.03832 l 21.30979,18.8846 7.06279,-27.60428 c 0,0 9.02869,-35.08077 25.25519,-72.88863 13.53546,-31.53974 33.51631,-63.4988 51.50352,-77.90348 v 415.28446 c 4.7e-4,11.13091 2.29091,21.69141 6.8976,31.67063 4.98972,9.59535 11.51745,18.03767 19.57734,25.33035 8.4439,7.29229 18.04764,13.03617 28.79415,17.25787 11.13051,4.2234 23.02565,6.34026 35.69123,6.34026 v -48.92888 c -11.51404,4e-4 -21.49447,-3.07497 -29.93835,-9.21612 -8.05989,-6.14152 -12.093,-13.62626 -12.093,-22.45411 V 370.30003 c 11.57253,20.15793 20.74594,52.11467 25.1348,82.46655 5.99654,41.4725 5.64714,78.37027 5.64714,78.37027 l -0.33138,29.01982 25.93255,-12.95103 c 0,0 14.30837,-7.18605 30.73711,-19.21618 16.42871,-12.03047 35.93149,-28.90346 47.09126,-52.04616 10.91951,-22.6452 22.17771,-56.35192 16.58077,-93.1439 -4.56381,-30.00071 -21.66066,-61.06539 -56.48885,-85.47842 4.81575,0.71983 9.61931,1.57963 14.32201,2.56163 32.44811,6.76243 59.78659,17.01728 59.78659,17.01728 l 21.47499,8.08697 -2.61986,-22.76996 c 0,0 -1.46588,-12.59031 -5.9634,-28.05637 -4.49753,-15.46571 -11.76552,-34.52358 -25.94816,-49.07922 -13.87757,-14.24263 -35.88033,-31.72008 -64.74123,-37.51322 -28.86138,-5.79319 -64.00294,1.98161 -97.46614,34.3207 -2.4454,2.36344 -4.43808,4.88979 -6.14422,7.57495 -0.41421,-0.81302 -0.87133,-1.61734 -1.35574,-2.42465 -23.95253,-39.89882 -55.87531,-56.5122 -85.25228,-58.38606 -3.67199,-0.23294 -7.27821,-0.26217 -10.82789,-0.11595 z m 1.21978,28.01086 c 2.61256,-0.11595 5.22754,-0.11595 7.84642,0.0591 20.95015,1.33757 42.68245,10.95836 63.00929,44.81745 0.0682,0.11595 2.41323,7.20834 2.93663,14.81881 0.42396,6.14634 0.15598,13.0595 -0.73781,18.65882 -3.47707,-0.76934 -6.60132,-1.22977 -8.88493,-1.50661 -1.98147,-0.86548 -3.98291,-1.67571 -5.99411,-2.43922 -23.92038,-20.36104 -61.06192,-24.6327 -93.45983,-26.45993 -22.55199,-1.2705 -30.00466,-0.0589 -42.12201,0.6791 0.56189,-0.97341 0.32163,-0.82773 0.93323,-1.83889 7.10327,-11.72042 17.58905,-24.82476 28.16158,-31.11336 12.24456,-7.28293 30.02414,-14.80745 48.31104,-15.67704 z m 178.27646,17.09275 c 5.53942,-0.20418 10.86249,0.35235 16.00816,1.38416 20.58221,4.1315 38.84571,17.94549 50.20869,29.60733 8.58474,8.81051 15.31372,24.20314 19.14071,37.36288 0.33136,1.13366 0.14627,0.91799 0.43859,2.00204 -11.51502,-3.84267 -18.39802,-6.94225 -40.51044,-11.55045 -34.91104,-7.27598 -76.11883,-13.19679 -105.28186,5.9333 -0.12665,0.0868 -0.25829,0.175 -0.38012,0.23341 -2.3952,0.4576 -4.77189,0.97915 -7.12323,1.58236 0,-0.63821 0,-1.4746 0,-2.60531 0.13636,-6.18221 1.89228,-14.83191 4.36741,-22.04749 2.47561,-7.21529 6.56378,-13.44765 6.65638,-13.53858 21.29857,-20.58344 39.83938,-27.79582 56.45864,-28.37227 z m -159.99394,83.94262 c 0.15598,-0.0291 9.42438,0.26217 18.52325,2.87634 8.18074,2.35758 17.11927,6.11984 23.47837,9.95436 v 8.40316 c -0.74706,0.33771 -1.57405,0.69067 -2.48536,1.055 -40.21411,16.03258 -63.53266,62.14978 -80.99062,102.82732 -11.05742,25.76486 -12.80157,34.96621 -17.09246,49.41055 -0.8957,-1.06955 -0.82992,-0.71111 -1.74707,-1.85345 -10.65586,-13.26057 -21.50472,-31.06586 -24.35117,-46.06734 -3.76801,-19.85694 -4.82112,-48.26647 5.63202,-72.13594 10.45314,-23.86949 30.90912,-45.13538 79.03304,-54.47054 z m 124.34751,14.03542 c 9.64222,-0.17501 18.82685,1.99335 18.975,2.06328 44.8832,21.86943 59.39478,48.18629 63.386,74.42474 3.99167,26.23817 -4.53701,53.89498 -13.47797,72.4367 -6.75532,14.00805 -22.10414,28.66251 -36.08308,38.89898 -1.20271,0.88298 -1.05067,0.55664 -2.21393,1.36964 -0.41421,-15.34165 0.2924,-24.85338 -3.7948,-53.11546 -6.45219,-44.62046 -17.23672,-96.13651 -52.57318,-122.51019 -4.54627,-3.39276 -6.41371,-5.62677 -7.68076,-7.27358 0.23391,0.0589 0.98587,-0.46346 5.39129,-1.95838 7.40297,-2.51205 18.42921,-4.15771 28.07143,-4.33724 z M 116.11717,428.37016 v 420.28445 c 0,0 25.96379,2.16823 37.76956,-9.63828 10.87501,-10.8753 12.31881,-36.50425 12.31881,-36.50425 l -5e-5,-138.66929 73.65677,0.26168 c 16.12025,0.0551 31.27912,-3.07537 45.48007,-9.2165 14.20125,-6.14112 26.6764,-14.37996 37.42319,-24.74284 10.74677,-10.74685 19.18919,-23.22201 25.33032,-37.42331 6.14105,-14.58474 9.21651,-29.947 9.21651,-46.06734 0,-16.50417 -3.07537,-31.85129 -9.21651,-46.0525 -6.14113,-14.20101 -14.58355,-26.67646 -25.33032,-37.42321 -10.74679,-10.74681 -23.22181,-19.18899 -37.42313,-25.33012 -14.20093,-6.14142 -29.35988,-9.18238 -45.48026,-9.21679 z m 50.08823,50.67566 c 0,0 66.02832,0.14567 67.30165,0.0868 37.11044,0.002 67.19437,30.08555 67.19607,67.19599 0.004,37.11665 -30.07973,67.2095 -67.19611,67.21116 -37.11655,-0.002 -67.20239,-30.09451 -67.19601,-67.21116 -0.001,-22.37991 -0.11989,-44.85703 -0.11989,-67.27147 z m 800.94703,73.68688 c -20.72599,0 -40.10596,4.03271 -58.1453,12.09274 -18.03933,7.67665 -33.96708,18.41067 -47.78423,32.22778 -13.43314,13.43377 -24.18258,29.37619 -32.24246,47.79941 -7.67683,18.03918 -11.52087,37.41925 -11.52087,58.14517 0,20.72626 3.84451,40.29438 11.52087,58.71745 8.05988,18.03935 18.80932,33.7788 32.24246,47.21204 13.81715,13.43381 29.7449,24.18256 47.78423,32.24274 18.03934,7.67629 37.41931,11.50552 58.1453,11.50552 16.12024,0 31.85941,-3.64062 47.21207,-10.93327 15.3527,-7.29213 29.3502,-17.27243 42.0163,-29.93855 l -34.5319,-34.54687 c -8.4439,8.44384 -17.2786,14.97177 -26.49005,19.57773 -9.21145,4.6061 -18.61098,6.91213 -28.20642,6.91213 -13.81717,0 -26.8731,-2.68399 -39.15517,-8.05687 -12.28208,-5.37363 -23.03103,-12.48158 -32.24295,-21.30943 -8.82741,-9.21149 -15.92093,-19.96063 -21.29419,-32.24251 -5.37325,-12.28208 -8.05695,-25.32247 -8.05647,-39.14011 -4.8e-4,-13.8171 2.68371,-26.87313 8.05647,-39.15501 5.37326,-12.28207 12.46678,-23.03102 21.29419,-32.2427 9.21192,-9.21152 19.96087,-16.30471 32.24295,-21.29453 12.28207,-5.37306 25.338,-8.05681 39.15517,-8.05681 9.59544,0 18.99497,2.49457 28.20642,7.48493 9.21145,4.60517 18.04615,10.92959 26.49005,18.99017 l 34.5319,-34.54688 c -12.6661,-12.66614 -26.6636,-22.64608 -42.0163,-29.93877 -15.35266,-7.67629 -31.09183,-11.5055 -47.21207,-11.5055 z m -459.99659,1.14559 c -20.72599,0 -40.10596,4.03278 -58.1453,12.09276 -18.03933,7.67649 -33.96661,18.42544 -47.78433,32.24268 -13.43333,13.43364 -24.18252,29.36115 -32.24266,47.78416 -7.6762,18.03957 -11.52063,37.41907 -11.52063,58.14537 0,20.72592 3.84428,40.3095 11.52063,58.7325 8.06014,18.0394 18.80933,33.76335 32.24266,47.19698 13.81772,13.43344 29.745,24.18237 47.78433,32.24255 18.03934,7.67669 37.41931,11.52082 58.1453,11.52082 19.5744,0 37.80868,-3.26415 54.69646,-9.78891 17.2718,-6.90868 32.61868,-16.30821 46.05229,-28.20667 v 32.2278 h 50.08833 v -56.5339 -87.39117 c 0,-20.7263 -4.03262,-40.10598 -12.0925,-58.14537 -7.67636,-18.42301 -18.42531,-34.35052 -32.24295,-47.78416 -13.43313,-13.81724 -29.36089,-24.56619 -47.78425,-32.24268 -18.42334,-8.05998 -37.99142,-12.09276 -58.71738,-12.09276 z m 1249.87476,-3.4e-4 c -20.726,0 -40.106,4.03312 -58.1453,12.0931 -18.0398,7.67649 -33.9671,18.42544 -47.7843,32.24268 -13.4336,13.43364 -24.1826,29.36115 -32.2429,47.78455 -7.6764,18.03918 -11.5053,37.41868 -11.5053,58.14498 0,20.72592 3.8289,40.3095 11.5053,58.7325 8.0603,18.0394 18.8093,33.76335 32.2429,47.19698 13.8172,13.43344 29.7445,24.18237 47.7838,32.24255 18.0393,7.67669 37.4198,11.52082 58.1458,11.52082 19.5744,0 37.8086,-3.26415 54.6964,-9.78891 17.2718,-6.90868 32.6338,-16.30821 46.0674,-28.20667 v 32.2278 h 50.0884 V 704.14326 c 0,-20.7263 -4.0327,-40.1058 -12.093,-58.14498 -7.6764,-18.42322 -18.4248,-34.35091 -32.243,-47.78455 -13.4331,-13.81724 -29.3609,-24.56619 -47.7837,-32.24268 -18.4239,-8.05925 -38.0066,-12.0931 -58.7325,-12.0931 z m -160.0393,0.57095 c -22.2611,0 -43.1785,4.03244 -62.7534,12.09256 -19.1904,7.67635 -36.0758,18.23719 -50.6605,31.67063 -14.5852,13.43361 -26.1026,29.36113 -34.5465,47.78413 -8.4439,18.42306 -12.6651,37.99174 -12.6651,58.71764 v 143.93998 h 49.5157 V 704.71386 c 0,-13.81708 2.8733,-26.85823 8.6296,-39.1399 5.7572,-12.28192 13.6197,-23.03083 23.5982,-32.24255 10.3625,-9.21168 22.2723,-16.32034 35.7064,-21.30979 13.4336,-5.37286 27.8234,-8.05685 43.1761,-8.05665 z m -366.1596,1.16038 c -20.7264,0 -40.2945,4.03315 -58.7174,12.09313 -18.0398,7.67632 -33.9827,18.2217 -47.7993,31.65551 -13.4337,13.43324 -24.168,29.36095 -32.2279,47.78415 -7.6763,18.42303 -11.5208,38.00665 -11.5208,58.73251 0,20.72592 3.8445,40.106 11.5208,58.14539 8.0599,18.0392 18.7938,33.96685 32.2279,47.78413 13.8166,13.43364 29.7595,24.18233 47.7988,32.24251 18.4234,7.67635 37.9915,11.50576 58.7179,11.50576 16.1198,0 31.6708,-3.6408 46.6395,-10.93329 15.3523,-7.67632 29.3502,-17.65666 42.0163,-29.93871 l -34.5314,-34.54688 c -8.4444,8.06016 -17.2786,14.58829 -26.4901,19.57768 -9.2114,4.60649 -18.4229,6.91233 -27.6343,6.91233 -11.8985,0 -23.2279,-1.9146 -33.9744,-5.75269 -10.3635,-3.83822 -19.763,-9.21996 -28.2064,-16.12989 -8.4439,-6.90882 -15.7406,-14.95925 -21.8819,-24.17079 -6.1408,-9.21168 -10.5501,-19.39531 -13.2372,-30.52589 h 245.8339 c 0.7661,-7.29249 1.1603,-12.47105 1.1603,-15.54161 v -8.62912 c 0,-20.7261 -4.0331,-40.30948 -12.093,-58.73275 -7.6763,-18.42302 -18.2371,-34.35071 -31.6703,-47.78415 -13.4336,-13.43357 -29.3614,-23.97901 -47.7842,-31.65531 -18.0394,-8.06018 -37.4193,-12.09276 -58.1453,-12.09276 z m -723.67586,47.78453 c 14.20115,0 27.4452,2.68395 39.72728,8.05687 12.28207,4.98939 22.82732,12.09785 31.65523,21.30939 9.21142,9.21152 16.31955,19.96063 21.30929,32.24255 5.37373,12.28207 8.05695,25.32262 8.05695,39.1401 0,13.81707 -2.68369,26.8731 -8.05695,39.15503 -4.98974,12.28208 -12.09737,23.03136 -21.30929,32.24269 -8.82791,8.82767 -19.37316,15.92083 -31.65523,21.29449 -12.28208,5.37325 -25.52613,8.05685 -39.72728,8.05685 -13.81717,0 -26.8731,-2.68394 -39.15517,-8.05685 -12.28208,-5.37346 -23.03103,-12.46644 -32.24294,-21.29414 -8.82742,-9.21148 -15.92046,-19.96096 -21.2942,-32.2429 -5.37325,-12.28207 -8.05681,-25.33773 -8.05681,-39.15483 0,-13.81744 2.68405,-26.85837 8.05681,-39.14011 5.37374,-12.28187 12.46678,-23.03116 21.2942,-32.24288 9.21191,-9.21154 19.96037,-16.31963 32.24294,-21.30925 12.28207,-5.37286 25.338,-8.05701 39.15517,-8.05701 z m 1249.87476,0 c 14.2011,0 27.4452,2.68395 39.7272,8.05687 12.2811,4.99069 22.8425,12.09785 31.6699,21.30993 9.2119,9.21152 16.3049,19.96062 21.2947,32.24274 5.3727,12.28188 8.0715,25.32243 8.0715,39.13991 0,13.8171 -2.6983,26.87295 -8.072,39.15523 -4.9893,12.28187 -12.0823,23.03096 -21.2942,32.24248 -8.8274,8.82768 -19.3883,15.9211 -31.6703,21.29415 -12.2816,5.37326 -25.5262,8.05705 -39.7273,8.05705 -13.8172,0 -26.858,-2.68399 -39.1401,-8.05705 -12.2821,-5.37305 -23.031,-12.46647 -32.2425,-21.29415 -8.8278,-9.21152 -15.9209,-19.96061 -21.2941,-32.24248 -5.3738,-12.28214 -8.0721,-25.33813 -8.0721,-39.15523 0,-13.81748 2.6983,-26.85803 8.0721,-39.13991 5.3727,-12.28212 12.4663,-23.0314 21.2941,-32.24308 9.2115,-9.21115 19.9604,-16.31927 32.2425,-21.30906 12.2821,-5.37292 25.3229,-8.05687 39.1401,-8.05687 z m -526.1989,1.73132 c 11.8981,0 23.0242,1.91465 33.3872,5.7527 10.747,3.83807 20.3502,9.20508 28.7941,16.1139 8.4439,6.52482 15.5365,14.59031 21.2942,24.18566 6.1408,9.21152 10.7543,19.19186 13.8245,29.93855 h -194.6004 c 2.6871,-10.74669 7.0964,-20.72703 13.2372,-29.93855 6.1413,-9.59535 13.438,-17.66084 21.8819,-24.18566 8.4439,-6.90882 17.8434,-12.27583 28.2069,-16.1139 10.7465,-3.83696 22.0759,-5.75304 33.9744,-5.7527 z" /></svg>
